<?xml version='1.0' encoding='utf-8'?>
<svg xmlns="http://www.w3.org/2000/svg" enable-background="new 0 0 1674.576 1669.767" version="1.1" viewBox="0 0 1674.576 1669.767">
		<polygon points="1112.2 110.06 1035.5 265.31 1057 273.2" fill="#9DDB71"/>
		<polygon points="1152.4 90.376 1069.7 242.55 1090.9 251.26" fill="#008BFB"/>
		<polygon points="141.5 935.38 314.47 927.12 310.93 904.48" fill="#7F850F"/>
		<polygon points="1279.3 212.8 1165.6 343.46 1184.4 356.56" fill="#A3994F"/>
		<polygon points="1415.5 1269.4 1288.6 1151.7 1274.9 1170.1" fill="#F98959"/>
		<polygon points="111.4 1180.7 274.19 1121.6 264.11 1101.1" fill="#23CFB1"/>
		<polygon points="984.75 84.738 935.48 250.75 958.02 254.88" fill="#576D79"/>
		<polygon points="119.96 988.58 291.99 968.73 286.94 946.37" fill="#B939CF"/>
		<polygon points="810.91 72.488 800.38 245.34 823.27 244.27" fill="#BFDF93"/>
		<polygon points="1244.1 261.54 1130.6 392.37 1149.4 405.44" fill="#6DB95F"/>
		<polygon points="1008.9 148.28 951.35 311.61 973.65 316.86" fill="#A105F1"/>
		<polygon points="1275.4 328.6 1150 447.97 1167.4 462.79" fill="#B99B7D"/>
		<polygon points="539.84 1577.5 620.04 1424.1 598.71 1415.7" fill="#35A9D7"/>
		<polygon points="1050.3 313.23 970.32 466.81 991.66 475.16" fill="#A7C7C5"/>
		<polygon points="1162.3 145.07 1073.7 293.83 1094.5 303.38" fill="#0359BB"/>
		<polygon points="1588.8 1124.8 1434.5 1046.3 1426.4 1067.7" fill="#5B810D"/>
		<polygon points="1132.2 280.09 1036.7 424.56 1057.1 435.08" fill="#FB5F05"/>
		<polygon points="660.19 90.068 684.1 261.58 706.33 256" fill="#E1C5D3"/>
		<polygon points="928.13 524.5 866.63 686.38 888.8 692.18" fill="#D58113"/>
		<polygon points="507.38 998.14 668.46 934.58 657.81 914.29" fill="#698339"/>
		<polygon points="436.71 959.04 605.95 922.36 598.72 900.61" fill="#C9C953"/>
		<polygon points="717.47 151.03 731.18 323.66 753.7 319.4" fill="#D77723"/>
		<polygon points="631.06 201.75 669.33 370.65 691.01 363.22" fill="#5B9D15"/>
		<polygon points="1187.2 1012.1 1041.2 918.92 1031 939.45" fill="#C385F1"/>
		<polygon points="171.65 1260.5 325.87 1181.8 313.32 1162.6" fill="#877535"/>
		<polygon points="1520.7 579.69 1353.2 623.87 1361.4 645.27" fill="#DBEB45"/>
		<polygon points="611.45 1602.8 676.69 1442.4 654.66 1436.1" fill="#35BBFD"/>
		<polygon points="1567.3 667.65 1395.4 689.07 1400.7 711.37" fill="#555799"/>
		<polygon points="991.28 1088.3 915.43 932.64 896.03 944.83" fill="#5F0D6F"/>
		<polygon points="80.457 782.58 251.34 810.64 252.61 787.76" fill="#8B15F3"/>
		<polygon points="810.87 297.25 803.68 470.27 826.55 468.76" fill="#DF958D"/>
		<polygon points="572.74 1537.5 649.65 1382.3 628.14 1374.4" fill="#7F9FD5"/>
		<polygon points="331.67 1058 495.83 1002.9 486.25 982.08" fill="#A7C9AB"/>
		<polygon points="623.76 1561.8 688.88 1401.4 666.85 1395.1" fill="#9B83E5"/>
		<polygon points="1375.2 1379.9 1266.8 1244.8 1250.6 1261" fill="#35B11B"/>
		<polygon points="551.74 174.91 605.55 339.51 626.44 330.1" fill="#854107"/>
		<polygon points="203.16 1291.3 352.84 1204.2 339.26 1185.7" fill="#092FE7"/>
		<polygon points="1514.3 740.24 1341.2 746.73 1344.5 769.41" fill="#CF0B13"/>
		<polygon points="215.77 1339.2 360.24 1243.7 345.63 1226.1" fill="#2DC1B1"/>
		<polygon points="213.51 425.38 348.68 533.62 361.01 514.3" fill="#5FC31B"/>
		<polygon points="1303.4 800.54 1130.2 796.18 1132.1 819.02" fill="#732F83"/>
		<polygon points="1336.7 1370.6 1232.2 1232.5 1215.5 1248.3" fill="#5F7D55"/>
		<polygon points="1237.8 1119.3 1107.5 1005.3 1094.3 1024.1" fill="#735D27"/>
		<polygon points="883.17 1601.9 890.58 1428.9 867.71 1430.4" fill="#E98939"/>
		<polygon points="53.788 750.38 223.46 785.01 225.61 762.2" fill="#51F13D"/>
		<polygon points="1243 1053.3 1099.5 956.28 1088.8 976.54" fill="#AFED59"/>
		<polygon points="157.66 797.52 328.95 822.96 329.86 800.06" fill="#FD6B51"/>
		<polygon points="88.235 1115.6 255.5 1070.7 247.23 1049.3" fill="#4B6B95"/>
		<polygon points="1018.6 432.71 933.65 583.62 954.71 592.66" fill="#3FD155"/>
		<polygon points="479.21 1545.2 572.31 1399.2 551.77 1389" fill="#99D787"/>
		<polygon points="652.57 146.58 681.62 317.3 703.67 311.06" fill="#650D4F"/>
		<polygon points="694.3 198.29 716.42 370.04 738.7 364.7" fill="#7BF92D"/>
		<polygon points="1546.1 622.51 1376.1 655.35 1382.8 677.25" fill="#D3A9F5"/>
		<polygon points="772.93 1618.7 804.32 1448.4 781.47 1446.7" fill="#85750F"/>
		<polygon points="1073.6 203.52 997.84 359.24 1019.4 367" fill="#4DBF33"/>
		<polygon points="1339.7 1440.7 1243.3 1296.8 1225.7 1311.6" fill="#ADE377"/>
		<polygon points="1209.7 303.81 1097.1 435.36 1116 448.31" fill="#231F75"/>
		<polygon points="566.41 223.86 621.89 387.9 642.69 378.28" fill="#09A7D1"/>
		<polygon points="844.53 1216.2 857.96 1043.6 835.05 1044.3" fill="#2BB735"/>
		<polygon points="1359 349.29 1221.3 454.4 1237.1 471.01" fill="#0B5D39"/>
		<polygon points="1317.7 1303.8 1206.8 1170.9 1190.9 1187.3" fill="#3B8751"/>
		<polygon points="92.561 552.83 247.99 629.19 255.83 607.66" fill="#CDD387"/>
		<polygon points="1374.9 814.5 1202.1 803.82 1203.1 826.71" fill="#615303"/>
		<polygon points="1491.1 803.48 1318.2 794.29 1319.4 817.18" fill="#F70557"/>
		<polygon points="966.19 40.411 922.39 207.95 945.06 211.34" fill="#9D19AB"/>
		<polygon points="440.46 776.64 609.21 815.5 611.93 792.74" fill="#43E939"/>
		<polygon points="63.251 968.83 235.94 955.96 231.8 933.42" fill="#55831F"/>
		<polygon points="760.39 1482.2 797.64 1313.1 774.86 1310.6" fill="#F11155"/>
		<polygon points="508.71 252.36 579.78 410.28 599.54 398.68" fill="#45EDAB"/>
		<polygon points="938.65 1184.5 906.8 1014.3 884.86 1020.9" fill="#D70971"/>
		<polygon points="817.06 1614.8 839 1443.1 816.09 1442.6" fill="#008D25"/>
		<polygon points="1146.5 379.85 1036.1 513.26 1055.2 525.9" fill="#4F49E7"/>
		<polygon points="1124.6 326.67 1025.5 468.69 1045.6 479.71" fill="#3D97AB"/>
		<polygon points="1251.4 1184.2 1131 1059.7 1116.3 1077.3" fill="#1153FD"/>
		<polygon points="1263.7 1346.5 1166.8 1202.9 1149.3 1217.7" fill="#99C52B"/>
		<polygon points="1506.3 448.62 1348.6 520.05 1360.2 539.79" fill="#91BB5D"/>
		<polygon points="440.64 198.38 518.26 353.18 537.53 340.76" fill="#47553F"/>
		<polygon points="534.74 1511.2 620.9 1361 599.92 1351.8" fill="#CB4929"/>
		<polygon points="1093.9 1097.7 985.57 962.63 969.33 978.8" fill="#F9D901"/>
		<polygon points="1334.4 445.51 1188.5 538.74 1202.8 556.62" fill="#FB8995"/>
		<polygon points="1396.9 310.29 1259.6 415.78 1275.4 432.35" fill="#617961"/>
		<polygon points="1580.1 767.4 1407 765.42 1409.2 788.23" fill="#05830F"/>
		<polygon points="1405.9 421.14 1256.7 508.96 1270.3 527.35" fill="#5F07FB"/>
		<polygon points="772.22 34.883 769.6 208.04 792.42 205.92" fill="#A91B63"/>
		<polygon points="398.69 233.48 487.38 382.22 505.69 368.44" fill="#77A7C3"/>
		<polygon points="864.75 381.24 839.58 552.58 862.48 553.46" fill="#71AD6B"/>
		<polygon points="1453.2 1346.7 1332.2 1222.9 1317.6 1240.6" fill="#2BA555"/>
		<polygon points="1130.5 817.95 957.49 811.74 959.13 834.6" fill="#89AD5B"/>
		<polygon points="260.1 279.01 372.96 410.36 388.64 393.64" fill="#69E1B3"/>
		<polygon points="934.84 1335.7 919 1163.3 896.54 1167.8" fill="#D7CB71"/>
		<polygon points="318.45 262.7 422.29 401.28 439.05 385.65" fill="#5907B3"/>
		<polygon points="786.82 189.06 784.11 362.21 806.93 360.11" fill="#495FCD"/>
		<polygon points="1193.1 1552.5 1132.4 1390.3 1111.9 1400.6" fill="#99A385"/>
		<polygon points="144.62 1230.9 302.54 1159.9 290.95 1140.1" fill="#57CB0B"/>
		<polygon points="1266.4 957.69 1105.3 894.09 1099.2 916.18" fill="#79A53D"/>
		<polygon points="1163 1347.7 1085.3 1192.9 1066 1205.4" fill="#791939"/>
		<polygon points="979.14 275.07 921.56 438.39 943.86 443.65" fill="#1D09D9"/>
		<polygon points="1021.4 497.6 925.42 641.75 945.74 652.33" fill="#B34971"/>
		<polygon points="1639.6 775.22 1466.5 770.34 1468.3 793.19" fill="#B379CB"/>
		<polygon points="1481.9 1130.6 1332.8 1042.7 1323.3 1063.5" fill="#3D2D1F"/>
		<polygon points="1450.4 849.51 1278.5 828.2 1278.2 851.11" fill="#85CFBF"/>
		<polygon points="1398.8 1412.6 1291.5 1276.6 1275.1 1292.7" fill="#B19D53"/>
		<polygon points="981.48 1278.3 944.49 1109.1 922.76 1116.4" fill="#F7A7B5"/>
		<polygon points="1590.9 569.28 1422.6 610.2 1430.4 631.76" fill="#359DF1"/>
		<polygon points="1619.2 808.44 1446.4 796.64 1447.3 819.54" fill="#B7AF8F"/>
		<polygon points="835.38 40.417 819.27 212.84 842.18 212.51" fill="#394371"/>
		<polygon points="390.75 714.52 553.56 773.52 559.01 751.26" fill="#0FC17F"/>
		<polygon points="564.44 280.1 626.66 441.7 647.04 431.22" fill="#7D2FD5"/>
		<polygon points="827.04 159.06 813.46 331.7 836.36 331.04" fill="#DDA577"/>
		<polygon points="681.28 1508.2 736.84 1344.2 714.47 1339.2" fill="#5BDDA7"/>
		<polygon points="1517 682.34 1345.1 703.07 1350.3 725.4" fill="#3DFB49"/>
		<polygon points="608.17 565.95 710.03 706 727.01 690.61" fill="#DD2B8D"/>
		<polygon points="132.26 542 285.22 623.19 293.73 601.91" fill="#0BCF4D"/>
		<polygon points="350.04 291.21 453.19 430.31 470.02 414.77" fill="#81BD81"/>
		<polygon points="42.327 911.63 215.5 911.75 213.06 888.97" fill="#B1F381"/>
		<polygon points="146.85 436.92 287.99 537.26 299.19 517.27" fill="#3339FB"/>
		<polygon points="526.16 544.56 642.52 672.81 657.74 655.68" fill="#8B35E9"/>
		<polygon points="1476.8 638.19 1307 672.41 1314 694.26" fill="#BD27AF"/>
		<polygon points="173.83 476.77 317.78 573.02 328.41 552.72" fill="#2DC7ED"/>
		<polygon points="200.1 960.78 372.41 943.43 367.68 921.01" fill="#89D72F"/>
		<polygon points="697 302.04 725.92 472.78 747.97 466.55" fill="#83ED4F"/>
		<polygon points="1217.2 1393.1 1134.7 1240.9 1115.8 1253.9" fill="#E1ADC1"/>
		<polygon points="1414.3 1326.9 1294.8 1201.6 1280 1219.1" fill="#E58F1B"/>
		<polygon points="461.58 262.64 543.07 415.44 562.02 402.55" fill="#FBB90F"/>
		<polygon points="167.49 1009.4 338.47 981.86 332.42 959.75" fill="#B923A5"/>
		<polygon points="488.35 1491 584.55 1347 564.24 1336.3" fill="#730381"/>
		<polygon points="230.31 320.68 351.27 444.61 365.86 426.93" fill="#6707B9"/>
		<polygon points="757.18 1533.6 793.85 1364.3 771.06 1361.9" fill="#53298D"/>
		<polygon points="1232.8 1318.9 1137.3 1174.5 1119.6 1189.1" fill="#01714B"/>
		<polygon points="226.94 575.09 379.35 657.3 388 636.08" fill="#EFE323"/>
		<polygon points="1470.1 501.29 1309.7 566.68 1320.6 586.85" fill="#D5C141"/>
		<polygon points="281.84 1062.7 447.47 1012.1 438.47 991.05" fill="#C1794D"/>
		<polygon points="888.49 222.56 858.46 393.11 881.32 394.64" fill="#5D6939"/>
		<polygon points="231.02 516.12 376.15 610.61 386.52 590.18" fill="#77055F"/>
		<polygon points="317.89 220.16 416.76 362.33 434.06 347.3" fill="#3DAB79"/>
		<polygon points="135.3 662.44 298.93 719.13 304.06 696.79" fill="#47EBE5"/>
		<polygon points="1234.6 1471.4 1158.3 1315.9 1138.9 1328.2" fill="#BB71C1"/>
		<polygon points="1092.8 1199.1 1007.7 1048.3 989.06 1061.7" fill="#8D371D"/>
		<polygon points="1390.1 258.88 1258.5 371.42 1275.2 387.14" fill="#452B8F"/>
		<polygon points="1365.1 1312.6 1249.3 1183.8 1234 1200.9" fill="#43C5E9"/>
		<polygon points="492.36 1087.2 640.62 997.69 626.75 979.45" fill="#958779"/>
		<polygon points="696.59 38.22 710.21 210.86 732.73 206.61" fill="#1DB7F3"/>
		<polygon points="312.39 1405.4 441.64 1290.2 424.64 1274.8" fill="#CB69DF"/>
		<polygon points="1089.1 1474.6 1042.3 1307.8 1021 1316.3" fill="#33BD69"/>
		<polygon points="786.77 119.77 782.55 292.89 805.39 290.99" fill="#1BB51D"/>
		<polygon points="209.92 354.38 336.82 472.22 350.52 453.85" fill="#9BA3B3"/>
		<polygon points="946.26 1389.9 930.27 1217.4 907.81 1222" fill="#4159BF"/>
		<polygon points="889.62 36.945 861.98 207.9 884.86 209.11" fill="#73EFCB"/>
		<polygon points="677.44 1164.9 767.04 1016.7 746.28 1007" fill="#178763"/>
		<polygon points="912.12 322.54 872.18 491.05 894.91 493.91" fill="#5DDBD7"/>
		<polygon points="315.48 928.62 488.01 913.78 483.61 891.29" fill="#E763FD"/>
		<polygon points="1216.2 213.29 1112.1 351.69 1131.8 363.42" fill="#F97B0D"/>
		<polygon points="34.984 830.94 207.28 848.33 207.12 825.42" fill="#6781E7"/>
		<polygon points="1558.3 885.17 1387.6 855.89 1386.2 878.77" fill="#1F31B1"/>
		<polygon points="103.5 626.88 264.96 689.46 270.91 667.33" fill="#0903D1"/>
		<polygon points="266.35 1395.7 401.24 1287.1 385.03 1270.9" fill="#4B73DF"/>
		<polygon points="507.54 110.33 564.21 273.97 584.93 264.2" fill="#F35999"/>
		<polygon points="1153.7 1097.8 1032.2 974.4 1017.7 992.14" fill="#8581CB"/>
		<polygon points="1573.7 834.78 1401.4 817.31 1401.5 840.22" fill="#DD1F0F"/>
		<polygon points="1168.9 1245 1074 1100.1 1056.3 1114.7" fill="#3B333B"/>
		<polygon points="707.21 70.491 719.83 243.2 742.38 239.09" fill="#E1CB11"/>
		<polygon points="428.89 566.61 564.78 673.95 576.98 654.55" fill="#E76791"/>
		<polygon points="1610.1 620.7 1439.4 649.86 1445.6 671.91" fill="#6FC957"/>
		<polygon points="1299.1 1478 1212.9 1327.7 1194.4 1341.2" fill="#D5FF37"/>
		<polygon points="498.62 439.37 599.45 580.16 616.55 564.89" fill="#7713CF"/>
		<polygon points="1510.2 396.94 1356.5 476.66 1369.1 495.76" fill="#E33741"/>
		<polygon points="1145 545.88 1008.5 652.55 1024.5 668.98" fill="#F70F41"/>
		<polygon points="1555.1 1193.9 1409.1 1100.9 1398.9 1121.4" fill="#7F6979"/>
		<polygon points="1442.1 684.94 1270.7 709.68 1276.4 731.88" fill="#41AB79"/>
		<polygon points="262.78 600.05 416.45 679.89 424.77 658.54" fill="#EB7F17"/>
		<polygon points="274.35 870.56 447.45 875.58 445.65 852.73" fill="#1F756D"/>
		<polygon points="1397.4 533.43 1237.7 600.4 1248.8 620.46" fill="#D585F7"/>
		<polygon points="857.29 1344 867.76 1171.2 844.87 1172.3" fill="#49671F"/>
		<polygon points="1560 532.3 1394.4 582.98 1403.4 604.04" fill="#2B23C1"/>
		<polygon points="106.93 1039.2 277.41 1008.8 271 986.79" fill="#DB1BE5"/>
		<polygon points="1131.9 233.38 1041.2 380.9 1061.9 390.74" fill="#A735BD"/>
		<polygon points="722.62 1234.4 785.73 1073.1 763.62 1067.1" fill="#E59B8B"/>
		<polygon points="583.67 1028.7 729.47 935.29 715.1 917.44" fill="#07C78F"/>
		<polygon points="911.87 1477.9 909.56 1304.7 886.82 1307.5" fill="#ED3B57"/>
		<polygon points="937.42 1629.9 933.59 1456.7 910.87 1459.7" fill="#71FBD3"/>
		<polygon points="247.37 948.8 419.72 932.02 415.07 909.58" fill="#971915"/>
		<polygon points="1480.1 350.59 1332.2 440.69 1346.2 458.87" fill="#39C3E7"/>
		<polygon points="429.9 472.72 548.63 598.78 563.53 581.37" fill="#2D61BF"/>
		<polygon points="1622.2 674.34 1449.9 691.62 1454.6 714.04" fill="#7DBB2B"/>
		<polygon points="447.64 1465.6 552.91 1328.1 533.32 1316.2" fill="#D309C1"/>
		<polygon points="1252.7 493.23 1109.2 590.2 1124 607.7" fill="#C99DB9"/>
		<polygon points="619.49 1498 689.58 1339.6 667.75 1332.7" fill="#492507"/>
		<polygon points="349.43 652.59 505.72 727.19 513.31 705.56" fill="#19932D"/>
		<polygon points="839.81 1279.6 855.72 1107.2 832.8 1107.6" fill="#CB83A7"/>
		<polygon points="1610.4 1046.9 1448.9 984.41 1443 1006.5" fill="#C74F25"/>
		<polygon points="374.39 1023.7 539.96 972.97 530.94 951.91" fill="#C171D5"/>
		<polygon points="1445.6 461.24 1289.9 537.07 1302.1 556.48" fill="#332783"/>
		<polygon points="59.897 1024.8 231.31 1000.2 225.64 978.01" fill="#4D8193"/>
		<polygon points="617.22 60.538 648.52 230.86 670.49 224.32" fill="#2B3BA9"/>
		<polygon points="1009.1 1343.5 970.38 1174.8 948.73 1182.3" fill="#41F56D"/>
		<polygon points="236.12 460.87 373.97 565.69 385.8 546.06" fill="#D15B87"/>
		<polygon points="755.37 1308.1 800.97 1141 778.35 1137.4" fill="#295B41"/>
		<polygon points="323.86 1152.6 478.96 1075.6 466.63 1056.3" fill="#B3C51D"/>
		<polygon points="272.18 821.91 444.24 841.48 444.37 818.57" fill="#AFF5E5"/>
		<polygon points="553.02 85.762 598.94 252.73 620.26 244.32" fill="#356927"/>
		<polygon points="723.19 1619.2 765.1 1451.2 742.4 1448.1" fill="#857D73"/>
		<polygon points="169.41 704.45 335.63 753.04 339.66 730.48" fill="#75157B"/>
		<polygon points="1410.2 645.64 1241.2 683.56 1248.6 705.26" fill="#B9977F"/>
		<polygon points="1476.5 1023.3 1316.1 957.88 1309.8 979.9" fill="#8DBB17"/>
		<polygon points="851.71 1444 865.03 1271.3 842.12 1272" fill="#E37F43"/>
		<polygon points="1545.1 1128.9 1392.8 1046.4 1384.1 1067.6" fill="#D755DB"/>
		<polygon points="1530.7 1018.1 1368.6 957.2 1362.9 979.4" fill="#9119D3"/>
		<polygon points="218.75 1136.9 380.85 1075.9 370.54 1055.5" fill="#A5672F"/>
		<polygon points="389.72 1446.5 505.38 1317.6 486.78 1304.3" fill="#D191BB"/>
		<polygon points="747.31 95.492 751.76 268.61 774.48 265.56" fill="#417F01"/>
		<polygon points="284.47 1208.4 436.5 1125.5 423.43 1106.7" fill="#6BB921"/>
		<polygon points="268.55 1133.7 428.72 1067.9 417.79 1047.8" fill="#839733"/>
		<polygon points="446.65 1145.8 591.46 1050.8 576.91 1033.1" fill="#21F961"/>
		<polygon points="419.14 1068.8 577.22 998.06 565.67 978.26" fill="#532B27"/>
		<polygon points="1503.4 873.04 1332.3 845.97 1331.2 868.86" fill="#23BBDF"/>
		<polygon points="1104.8 1433.1 1050.4 1268.7 1029.6 1278.2" fill="#353B93"/>
		<polygon points="1624.8 978.29 1458.4 930.24 1454.5 952.81" fill="#A70759"/>
		<polygon points="563.43 132.85 611.05 299.35 632.28 290.72" fill="#45DB65"/>
		<polygon points="1329.6 1074.3 1182.3 983.2 1172.4 1003.9" fill="#4D5F51"/>
		<polygon points="1215 1517.4 1147 1358.1 1127 1369.3" fill="#2B23DB"/>
		<polygon points="1096.3 1363.3 1036 1201 1015.5 1211.2" fill="#0BD313"/>
		<polygon points="1635.3 904.75 1465.2 872.36 1463.3 895.2" fill="#1F8B93"/>
		<polygon points="1208.6 423.24 1081 540.29 1098.2 555.42" fill="#17BF59"/>
		<polygon points="231.34 673.83 394 733.25 399.51 711" fill="#07AB1B"/>
		<polygon points="178.12 532.5 328.07 619.11 337.34 598.15" fill="#65F73B"/>
		<polygon points="1299.4 592.73 1139.2 658.28 1150.1 678.44" fill="#2F5739"/>
		<polygon points="247.86 1262 397.2 1174.3 383.55 1155.9" fill="#73030B"/>
		<polygon points="319.99 371.83 437.78 498.77 452.81 481.47" fill="#EF7945"/>
		<polygon points="982.07 610.92 876.72 748.36 896.29 760.27" fill="#9D9783"/>
		<polygon points="196.73 744.86 365.33 784.41 368.14 761.67" fill="#51E9E5"/>
		<polygon points="469.18 680.93 622.92 760.62 631.23 739.26" fill="#93D9DB"/>
		<polygon points="414.65 638.11 564.78 724.43 574.01 703.45" fill="#7D19C3"/>
		<polygon points="1169.7 208.63 1074.1 353.04 1094.5 363.57" fill="#EB79DD"/>
		<polygon points="1465.6 1193.1 1324.8 1092.3 1313.5 1112.2" fill="#F10FA1"/>
		<polygon points="49.485 700.29 216.7 745.33 220.25 722.69" fill="#A9F531"/>
		<polygon points="1016.3 1180.6 951.83 1019.9 931.6 1030.7" fill="#C9E5A1"/>
		<polygon points="490.24 909.01 662.03 887.18 656.72 864.89" fill="#635BC3"/>
		<polygon points="1307 656.18 1140 702.02 1148.4 723.34" fill="#7F2BA5"/>
		<polygon points="513.22 1181.7 642.74 1066.7 625.77 1051.3" fill="#15E7E3"/>
		<polygon points="916.81 1261.5 902.17 1088.9 879.67 1093.3" fill="#751147"/>
		<polygon points="200.78 902.89 373.94 900.81 371.2 878.06" fill="#334F5D"/>
		<polygon points="149.49 1171.2 311.64 1110.4 301.34 1089.9" fill="#1983E7"/>
		<polygon points="1058.9 57.191 995.68 218.43 1017.8 224.45" fill="#5DC111"/>
		<polygon points="88.006 874.04 261.01 881.6 259.55 858.73" fill="#FDE703"/>
		<polygon points="679.94 1608 731.24 1442.6 708.75 1438.2" fill="#292B4B"/>
		<polygon points="289.34 540.98 433.82 636.46 444.33 616.09" fill="#A70721"/>
		<polygon points="1415.5 1193.1 1278.5 1087.3 1266.5 1106.8" fill="#F1F905"/>
		<polygon points="1050 374.42 963.26 524.33 984.22 533.61" fill="#8367BB"/>
		<polygon points="146.85 876.89 319.92 882.82 318.25 859.96" fill="#51F101"/>
		<polygon points="582.14 327.42 646.05 488.37 666.32 477.68" fill="#FB9707"/>
		<polygon points="643.42 257.8 683.5 426.27 705.1 418.61" fill="#1DD94B"/>
		<polygon points="919.93 1537.5 917.43 1364.3 894.68 1367.1" fill="#8D292B"/>
		<polygon points="293.55 326.9 408.5 456.41 423.91 439.45" fill="#6BD9D1"/>
		<polygon points="1175.1 696.67 1009.6 747.5 1018.6 768.56" fill="#2507DB"/>
		<polygon points="882.55 446.26 848.62 616.08 871.44 618.13" fill="#2D2BE5"/>
		<polygon points="1486 1302.1 1356.7 1186.9 1343.4 1205.6" fill="#95B7FB"/>
		<polygon points="1071.7 584.09 942.93 699.88 960 715.18" fill="#41298F"/>
		<polygon points="585.33 892.38 756.58 866.63 750.76 844.46" fill="#4FAFA3"/>
		<polygon points="379.21 438.47 499.36 563.17 514.07 545.59" fill="#D11959"/>
		<polygon points="1190.9 905.32 1025 855.81 1020.8 878.35" fill="#1B85EB"/>
		<polygon points="185.07 636.62 345.43 702 351.76 679.97" fill="#616301"/>
		<polygon points="957.14 371.63 899.3 534.85 921.6 540.15" fill="#EB2BDD"/>
		<polygon points="1051 254.79 976.25 410.99 997.87 418.61" fill="#871777"/>
		<polygon points="483.99 1382.9 591.73 1247.3 572.36 1235" fill="#FD85CD"/>
		<polygon points="694.75 1556.8 744.98 1391 722.46 1386.8" fill="#4935D5"/>
		<polygon points="858.04 1561.4 870.72 1388.7 847.81 1389.5" fill="#21F5D9"/>
		<polygon points="1262.3 1516.1 1186.1 1360.6 1166.7 1372.9" fill="#7941E5"/>
		<polygon points="578.6 680.77 720.32 780.28 731.41 760.22" fill="#330B17"/>
		<polygon points="794.64 1153.8 832.81 984.94 810.05 982.31" fill="#11815F"/>
		<polygon points="1177.8 1172.8 1067.7 1039.1 1051.6 1055.5" fill="#219D51"/>
		<polygon points="371.14 878.45 544.31 877.83 541.77 855.05" fill="#6DA321"/>
		<polygon points="1292.2 274.65 1170.5 397.8 1188.4 412.07" fill="#DF41A5"/>
		<polygon points="1463.4 1256.5 1330.5 1145.4 1317.8 1164.5" fill="#650FBF"/>
		<polygon points="869.22 1398.2 876.86 1225.2 854 1226.7" fill="#2BB3CD"/>
		<polygon points="500.31 1440.9 599.1 1298.7 578.98 1287.7" fill="#EB9BDF"/>
		<polygon points="1367.8 1244.3 1242.3 1125 1228.4 1143.2" fill="#43F3A7"/>
		<polygon points="509.51 382.57 598.49 531.14 616.77 517.32" fill="#E3EF77"/>
		<polygon points="83.328 679.22 248.92 729.9 253.24 707.4" fill="#2FABE3"/>
		<polygon points="677.06 354.79 717.39 523.2 738.98 515.5" fill="#C1A3AB"/>
		<polygon points="958.92 1592.4 949.2 1419.5 926.59 1423.3" fill="#3FD3FF"/>
		<polygon points="369.98 382.14 482.84 513.48 498.52 496.77" fill="#E73F31"/>
		<polygon points="1074.3 1561.3 1037.7 1392.1 1016 1399.3" fill="#698B17"/>
		<polygon points="991.59 1543.4 972.28 1371.3 949.91 1376.3" fill="#9FED8D"/>
		<polygon points="1102.1 1298.6 1031.5 1140.4 1011.7 1152" fill="#135101"/>
		<polygon points="809.14 505.84 810.01 679.01 832.78 676.43" fill="#D51541"/>
		<polygon points="1450.7 399.09 1300.4 485.11 1313.9 503.67" fill="#7D199B"/>
		<polygon points="289.02 994.32 459.06 961.54 452.34 939.64" fill="#994939"/>
		<polygon points="611.67 117.79 647.91 287.13 669.68 279.96" fill="#E1BBE5"/>
		<polygon points="495.32 322.26 578.2 474.31 597.03 461.25" fill="#B56999"/>
		<polygon points="1006 1432.5 976.1 1261.9 954.09 1268.3" fill="#1DBD2B"/>
		<polygon points="1337.8 292.37 1208.5 407.57 1225.5 422.94" fill="#992BEB"/>
		<polygon points="159.74 1119.9 325.05 1068.3 315.91 1047.2" fill="#55D5D1"/>
		<polygon points="1387 883.41 1216.8 851.4 1215 874.24" fill="#497FDF"/>
		<polygon points="99.555 829.18 271.82 846.87 271.7 823.95" fill="#55831F"/>
		<polygon points="1314 1193.5 1187 1075.8 1173.3 1094.2" fill="#67DB55"/>
		<polygon points="1414.2 935.94 1247.4 889.42 1243.6 912.02" fill="#93B109"/>
		<polygon points="1264.4 865.45 1093.6 836.71 1092.3 859.58" fill="#89FD23"/>
		<polygon points="1140.4 1551.2 1089.5 1385.7 1068.5 1394.7" fill="#93A7F9"/>
		<polygon points="1267.3 1421.9 1179.7 1272.5 1161.3 1286.2" fill="#D7B909"/>
		<polygon points="1419.6 783.73 1246.4 781.5 1248.6 804.31" fill="#DDCBCD"/>
		<polygon points="1023.6 1575.4 998.83 1404.1 976.63 1409.7" fill="#AF8DB7"/>
		<polygon points="1529.6 948.73 1362.3 903.7 1358.8 926.34" fill="#E70723"/>
		<polygon points="1236.5 552.79 1086.4 639.21 1099.9 657.73" fill="#D13F61"/>
		<polygon points="963.67 221.87 913.34 387.56 935.85 391.84" fill="#F96761"/>
		<polygon points="1470.1 569.93 1304.5 620.79 1313.6 641.85" fill="#91AF49"/>
		<polygon points="564.51 1347.1 660.48 1203 640.16 1192.4" fill="#E1E1C7"/>
		<polygon points="765.34 414.56 779.82 587.12 802.32 582.77" fill="#3F2B09"/>
		<polygon points="321.65 485.68 455.55 595.5 468.09 576.32" fill="#A339B1"/>
		<polygon points="417.09 1416.5 531.91 1286.9 513.23 1273.6" fill="#71C1F1"/>
		<polygon points="539.8 767.23 705.46 817.68 709.75 795.17" fill="#314BCF"/>
		<polygon points="1069 136.15 999.1 294.59 1020.9 301.53" fill="#43BF77"/>
		<polygon points="1052.4 1260 989.78 1098.6 969.42 1109.1" fill="#4585DB"/>
		<polygon points="1376.1 1163.4 1238.3 1058.6 1226.4 1078.2" fill="#4197A5"/>
		<polygon points="749.61 275.16 760.7 447.98 783.28 444.07" fill="#BBB11B"/>
		<polygon points="90.309 925.65 263.43 921.41 260.42 898.69" fill="#A93353"/>
		<polygon points="736.33 1384.2 783.95 1217.7 761.36 1213.8" fill="#674547"/>
		<polygon points="1314.7 1015.8 1159.7 938.58 1151.7 960.08" fill="#E199E5"/>
		<polygon points="1571.9 1064.4 1412.7 996.21 1406 1018.1" fill="#E1BD41"/>
		<polygon points="1248.2 1247.6 1139 1113.1 1122.9 1129.4" fill="#936D45"/>
		<polygon points="1291.7 377.47 1158.4 488.01 1174.8 503.98" fill="#B5B9B7"/>
		<polygon points="1436.2 1067.8 1282 989.03 1273.8 1010.4" fill="#9D331F"/>
		<polygon points="432.45 407.07 539.78 542.97 556.13 526.92" fill="#3F03B9"/>
		<polygon points="1294 1385.4 1197.6 1241.6 1180 1256.3" fill="#DD55D3"/>
		<polygon points="386.62 1249.7 524.64 1145.1 508.92 1128.4" fill="#B96D63"/>
		<polygon points="1366.2 698.02 1195.1 724.72 1201 746.86" fill="#436349"/>
		<polygon points="1420.4 361.42 1275.9 456.93 1290.5 474.58" fill="#93170B"/>
		<polygon points="705.72 488.08 754.22 654.33 775.4 645.59" fill="#0B79AB"/>
		<polygon points="1215.9 360.86 1095.4 485.21 1113.5 499.3" fill="#9D5531"/>
		<polygon points="1524.7 504.14 1362 563.46 1372.1 584.02" fill="#B39B59"/>
		<polygon points="293.02 718.41 458.52 769.4 462.88 746.9" fill="#69D307"/>
		<polygon points="1039.6 1401.9 998.14 1233.8 976.6 1241.7" fill="#97E7FF"/>
		<polygon points="371.58 194.75 459.96 343.67 478.3 329.93" fill="#0F99DD"/>
		<polygon points="1323.1 195.77 1205.3 322.64 1223.6 336.35" fill="#31C173"/>
		<polygon points="768.23 1433.1 804.8 1263.8 782.01 1261.4" fill="#B91D13"/>
		<polygon points="1572.3 722.13 1399.3 730.86 1402.9 753.49" fill="#EF8BFD"/>
		<polygon points="325.55 770.08 494.82 806.63 497.23 783.84" fill="#5FFB8F"/>
		<polygon points="117.35 489.23 265.65 578.66 275.31 557.88" fill="#1F7B99"/>
		<polygon points="511.37 1317 621.88 1183.7 602.77 1171" fill="#67B171"/>
		<polygon points="854.88 1519.5 867.98 1346.8 845.08 1347.6" fill="#7D9BBB"/>
		<polygon points="1352 230.91 1227.3 351.03 1244.8 365.74" fill="#7767FB"/>
		<polygon points="1509.8 1176.5 1364.3 1082.6 1354 1103" fill="#5BE71D"/>
		<polygon points="640.47 1436.1 710.27 1277.6 688.43 1270.7" fill="#B3DF73"/>
		<polygon points="1458.8 737.69 1285.9 747.1 1289.6 769.72" fill="#075BD9"/>
		<polygon points="671.84 1273.6 748.14 1118.2 726.6 1110.3" fill="#69830B"/>
		<polygon points="413.02 155.88 490.69 310.66 509.95 298.24" fill="#791B3B"/>
		<polygon points="1180.5 1448 1111.6 1289.1 1091.6 1300.4" fill="#EBFF7B"/>
		<polygon points="786.95 1571.4 815.95 1400.7 793.08 1399.3" fill="#299543"/>
		<polygon points="918.87 66.102 884.48 235.82 907.29 237.94" fill="#C5A76F"/>
		<polygon points="1440.4 301.31 1300 402.74 1315.4 419.77" fill="#DBABAF"/>
		<polygon points="373.11 960.62 543.65 930.54 537.27 908.53" fill="#E7172B"/>
		<polygon points="1336.5 747.44 1163.8 760.32 1168 782.86" fill="#177BD1"/>
		<polygon points="360.14 1320.2 492.96 1209.1 476.46 1193.2" fill="#BF4575"/>
		<polygon points="325.84 1259.9 469 1162.5 454.15 1145.1" fill="#CFAF69"/>
		<polygon points="378.39 1190.8 524.57 1097.9 510.28 1080" fill="#BFEBDD"/>
		<polygon points="1380.5 1088.3 1231.9 999.52 1222.3 1020.3" fill="#21112F"/>
		<polygon points="817.44 1482.6 839.95 1310.9 817.04 1310.4" fill="#9755B1"/>
		<polygon points="263.22 387.16 389.21 505.97 403.05 487.7" fill="#85771B"/>
		<polygon points="464.02 134.37 530.85 294.13 550.92 283.07" fill="#4D558F"/>
		<polygon points="445.79 1208.7 581.74 1101.4 565.7 1085" fill="#B78F0F"/>
		<polygon points="583.75 385.84 655.67 543.37 675.38 531.68" fill="#8D7391"/>
		<polygon points="1558.3 465.27 1397.2 528.62 1407.8 548.93" fill="#A1D9B5"/>
		<polygon points="541.44 1255.6 654.21 1124.1 635.32 1111.2" fill="#B78B33"/>
		<polygon points="1427.7 578.89 1262.8 631.96 1272.1 652.9" fill="#1FB9CB"/>
		<polygon points="1018.6 1482 989.06 1311.3 967.03 1317.6" fill="#F35101"/>
		<polygon points="1536.4 802.6 1363.5 793.02 1364.6 815.91" fill="#710FC5"/>
		<polygon points="766.07 354.66 776.2 527.54 798.8 523.75" fill="#614FF3"/>
		<polygon points="421.54 1363 541.5 1238.1 523.36 1224.1" fill="#9B3359"/>
		<polygon points="184.63 1194.3 343.61 1125.7 332.32 1105.7" fill="#5B8B4B"/>
		<polygon points="957.44 157.81 911.51 324.78 934.13 328.45" fill="#872779"/>
		<polygon points="120.33 731.06 288.68 771.61 291.63 748.88" fill="#479391"/>
		<polygon points="1266.6 719.77 1095.8 748.36 1102 770.42" fill="#2F3F97"/>
		<polygon points="1123.5 173.98 1039.7 325.56 1060.9 334.42" fill="#172587"/>
		<polygon points="1594 924.19 1424.9 886.75 1422.4 909.52" fill="#5995A3"/>
		<polygon points="1219.6 789.12 1046.5 792.98 1049.4 815.7" fill="#ED73FD"/>
		<polygon points="832.81 237.91 818.23 410.47 841.14 409.94" fill="#338723"/>
		<polygon points="68.932 611.97 229.97 675.65 236.06 653.56" fill="#8525A1"/>
		<polygon points="893.64 279.82 860.88 449.87 883.72 451.76" fill="#21D109"/>
		<polygon points="1321.8 873.66 1151.3 843.25 1149.7 866.12" fill="#B98FED"/>
		<polygon points="1017.7 194.12 955.44 355.7 977.59 361.6" fill="#B7F3E9"/>
		<polygon points="650.97 426.74 709.58 589.7 730.19 579.67" fill="#7975C3"/>
		<polygon points="273.02 1344.8 412.22 1241.8 396.69 1224.9" fill="#0F67C3"/>
		<polygon points="373.73 512.7 506.47 623.91 519.22 604.87" fill="#3F6B39"/>
		<polygon points="333.5 1450.4 455.97 1327.9 438.12 1313.6" fill="#C37FE7"/>
		<polygon points="360.99 574.3 504.89 670.64 515.53 650.34" fill="#D56975"/>
		<polygon points="224.97 1058.9 392.47 1015 384.31 993.56" fill="#23A91F"/>
		<polygon points="1269.7 435.94 1131.9 540.72 1147.6 557.37" fill="#BB0D81"/>
		<polygon points="855.55 1634.9 869.29 1462.3 846.38 1462.9" fill="#8D7F3F"/>
		<polygon points="792.33 1373.5 823.4 1203.1 800.54 1201.5" fill="#0F67A3"/>
		<polygon points="1383 482.04 1229.2 561.63 1241.8 580.74" fill="#ED9959"/>
		<polygon points="715.98 591.82 782.86 751.56 802.93 740.49" fill="#7D3F2B"/>
		<polygon points="1391.6 1017.7 1233.4 947.24 1226.3 969.05" fill="#092371"/>
		<polygon points="164.45 589.84 320.96 663.97 328.49 642.33" fill="#951915"/>
		<polygon points="1112.6 964.99 963.89 876.29 954.33 897.12" fill="#51D3A7"/>
		<polygon points="1204.7 633.04 1046 702.29 1057.4 722.19" fill="#D7CD97"/>
		<polygon points="682.2 1355.4 747.47 1195 725.44 1188.7" fill="#DD4B0F"/>
		<polygon points="1352.9 407.99 1209.5 505.04 1224.3 522.54" fill="#87EF81"/>
		<polygon points="1170.4 481.63 1040.4 596.06 1057.3 611.54" fill="#3F7589"/>
		<polygon points="298.4 632.66 454.43 707.77 462.1 686.17" fill="#9DC7DF"/>
		<polygon points="437.36 348.92 534.93 491.98 552.37 477.12" fill="#4DCFFB"/>
		<polygon points="1187.3 1298.7 1097.4 1150.7 1079.2 1164.7" fill="#DD09AB"/>
		<polygon points="586.57 1122.5 711.71 1002.8 694.18 988.07" fill="#83AD11"/>
		<polygon points="370.39 1122.9 525.5 1045.9 513.17 1026.6" fill="#33BF51"/>
		<polygon points="936.78 1434.4 925.96 1261.5 903.37 1265.4" fill="#5F9DF3"/>
		<polygon points="201.31 833.2 373.7 849.69 373.42 826.78" fill="#25D123"/>
		<polygon points="958.89 1506.6 945.64 1334 923.11 1338.2" fill="#5FCF1B"/>
		<polygon points="463.94 846.52 636.88 855.66 635.62 832.77" fill="#9FF3EF"/>
		<polygon points="248.79 767.18 418.37 802.26 420.58 779.45" fill="#CD21ED"/>
		<polygon points="694.51 1062 799.03 923.96 779.38 912.17" fill="#EF7133"/>
		<polygon points="1011.2 1617.9 991.29 1445.9 968.94 1451" fill="#73B95B"/>
		<polygon points="222.96 1216 378.16 1139.2 365.84 1119.9" fill="#0305A1"/>
		<polygon points="378.17 1487.9 491.43 1356.9 472.59 1343.9" fill="#2D6F35"/>
		<polygon points="1151.1 1495.2 1093 1332 1072.3 1342" fill="#FDA3C9"/>
		<polygon points="621.98 1369.6 702.06 1216 680.72 1207.7" fill="#B9D721"/>
		<polygon points="1515.7 1247.1 1377.8 1142.3 1365.9 1162" fill="#71477B"/>
		<polygon points="610.61 1291.8 702.21 1144.8 681.58 1134.9" fill="#B7E99B"/>
		<polygon points="1513.9 1080.1 1358 1004.9 1350.3 1026.4" fill="#2D2F91"/>
		<polygon points="1369.5 604.83 1204.6 657.89 1214 678.83" fill="#8F61ED"/>
		<polygon points="470.03 1264.3 594.71 1144.1 577.13 1129.4" fill="#75ED1D"/>
		<polygon points="375.72 328.17 480.11 466.34 496.81 450.64" fill="#4B711F"/>
		<polygon points="573.19 1463.6 655.78 1311.4 634.58 1302.6" fill="#F9C3DD"/>
		<polygon points="1446.1 976.75 1282.2 920.86 1277.2 943.22" fill="#35890F"/>
		<polygon points="482.18 501.81 597.82 630.71 613.14 613.66" fill="#D92153"/>
		<polygon points="1278.9 164.15 1169.9 298.73 1189.2 311.16" fill="#0FD9EB"/>
		<polygon points="1321.9 525 1167.8 604.02 1180.4 623.17" fill="#DD615D"/>
		<polygon points="175.27 1069.1 343.28 1027.1 335.37 1005.6" fill="#D1CFA9"/>
		<polygon points="862.3 103.58 840.17 275.33 863.08 275.81" fill="#210573"/>
		<polygon points="891.41 167.1 861.58 337.68 884.45 339.19" fill="#4B6FF5"/>
		<polygon points="586.57 473.26 673.24 623.18 691.74 609.65" fill="#FD9545"/>
		<polygon points="1209.4 122.62 1114.5 267.54 1135 277.95" fill="#E51573"/>
		<polygon points="1489.3 923.95 1320.9 883.6 1317.9 906.33" fill="#E59559"/>
		<polygon points="284.14 1299.9 426.85 1201.8 411.92 1184.4" fill="#090379"/>
		<polygon points="490.46 177.9 556.82 337.85 576.93 326.85" fill="#CB3FC7"/>
		<polygon points="590.67 1204.7 699.94 1070.4 680.71 1057.9" fill="#27932B"/>
		<polygon points="1087.4 695.15 929.75 766.76 941.41 786.49" fill="#D3271F"/>
		<polygon points="923.39 110.67 886.99 279.98 909.79 282.36" fill="#53BFC9"/>
		<polygon points="101.24 1081.4 269.98 1042.5 262.46 1020.8" fill="#1B9BBF"/>
		<polygon points="743.94 221.74 754.03 394.62 776.63 390.84" fill="#B71B1D"/>
		<polygon points="1574.6 975.77 1408.6 926.34 1404.5 948.88" fill="#B9B357"/>
		<polygon points="324.43 1350.6 457.95 1240.3 441.54 1224.3" fill="#61218B"/>
		<polygon points="1629.3 852.56 1457.5 831.2 1457.1 854.12" fill="#03A975"/>
		<polygon points="1033.4 96.221 973.31 258.62 995.53 264.23" fill="#6D03CB"/>
		<polygon points="1312 1250.7 1194.1 1123.9 1179.1 1141.2" fill="#21954D"/>
		<polygon points="424.92 1515.5 529.06 1377.2 509.37 1365.4" fill="#008DBF"/>
		<polygon points="410.07 286.35 503.54 432.13 521.4 417.76" fill="#6F298B"/>
		<polygon points="1631.5 733.58 1458.3 737.82 1461.4 760.54" fill="#031FF5"/>
		<polygon points="1430.7 1119.1 1283 1028.7 1273.2 1049.4" fill="#834D33"/>
		<polygon points="360.29 1393.2 485.21 1273.3 467.66 1258.5" fill="#614951"/>
		<polygon points="1068.5 1516 1029.8 1347.2 1008.2 1354.6" fill="#8D9BF3"/>
		<polygon points="1225.8 161.05 1125.1 301.9 1145 313.15" fill="#6FFF09"/>
		<polygon points="436.88 1305.5 561.36 1185.1 543.75 1170.5" fill="#833F69"/>
		<polygon points="295.58 437.31 425.11 552.25 438.39 533.58" fill="#7FA31F"/>
		<polygon points="1350.1 956.35 1186.4 900.1 1181.3 922.44" fill="#A549E9"/>
		<polygon points="364.27 812.9 535.92 835.83 536.5 812.92" fill="#0DD391"/>
		<polygon points="1115 434.68 1003.5 567.2 1022.5 579.98" fill="#F98D01"/>
		<polygon points="509.19 619.23 645.57 725.94 657.68 706.48" fill="#F1018D"/>
		<polygon points="560.58 1410.2 650.7 1262.3 629.96 1252.5" fill="#250F21"/>
		<polygon points="696.43 1449.8 751.44 1285.6 729.06 1280.7" fill="#1541ED"/>
		<polygon points="1151 1393.7 1081.8 1235 1061.9 1246.3" fill="#151989"/>
		<polygon points="1095.2 1596.9 1056.8 1428 1035.1 1435.5" fill="#8F29AB"/>
		<polygon points="177.35 389.38 311.03 499.46 323.62 480.3" fill="#B9BBC5"/>
		<polygon points="1304.7 1129 1168.3 1022.4 1156.2 1041.8" fill="#F91919"/>
</svg>